<?xml version="1.0" standalone="no"?>
<!DOCTYPE svg PUBLIC "-//W3C//DTD SVG 20010904//EN"
 "http://www.w3.org/TR/2001/REC-SVG-20010904/DTD/svg10.dtd">
<svg version="1.0" xmlns="http://www.w3.org/2000/svg"
 width="512.000000pt" height="512.000000pt" viewBox="0 0 512.000000 512.000000"
 preserveAspectRatio="xMidYMid meet">

<g transform="translate(0.000000,512.000000) scale(0.100000,-0.100000)"
fill="#000000" stroke="none">
<path d="M2330 4514 c-396 -24 -680 -79 -865 -169 l-90 -43 -89 -269 c-49
-147 -93 -279 -98 -292 -9 -24 -12 -22 -96 62 l-87 87 -143 0 -142 0 0 -140 0
-139 33 -5 c17 -3 84 -11 147 -17 63 -6 120 -15 127 -21 24 -20 24 -46 -2 -84
-42 -62 -59 -136 -58 -259 0 -93 25 -290 38 -304 3 -2 44 4 92 13 188 34 413
56 588 56 155 0 245 10 245 26 0 11 -51 13 -272 11 l-273 -2 -23 124 c-13 68
-21 125 -19 127 5 5 602 -25 636 -32 22 -5 23 -7 16 -71 -4 -36 -3 -64 2 -62
4 2 35 18 68 35 235 122 631 184 1185 184 372 0 669 -27 882 -81 42 -10 79
-19 83 -19 9 0 -4 105 -21 166 -7 28 -25 67 -39 88 -24 35 -24 39 -10 66 9 17
22 30 30 30 21 0 215 20 253 26 l32 5 0 139 0 140 -142 0 -143 0 -87 -87 c-84
-84 -87 -86 -96 -62 -5 13 -49 145 -98 292 l-89 269 -90 43 c-154 75 -349 120
-640 150 -145 15 -611 27 -745 19z m840 -209 c231 -24 433 -68 460 -100 8 -10
210 -595 210 -610 0 -3 -562 -5 -1250 -5 -687 0 -1250 1 -1250 3 0 13 202 602
210 612 38 46 361 100 720 119 153 8 763 -4 900 -19z"/>
<path d="M2795 3224 c-334 -32 -604 -99 -727 -180 -67 -43 -54 -50 110 -58
123 -5 168 -3 263 13 205 35 309 43 685 48 572 8 950 -25 1124 -98 l45 -19
102 -305 101 -305 -327 0 -328 0 -6 -172 c-4 -94 -5 -173 -3 -175 2 -2 152 4
335 14 182 10 331 15 331 12 0 -7 -36 -188 -45 -226 l-5 -23 -299 0 -298 0 -6
76 c-3 42 -8 78 -11 81 -5 6 -227 -13 -272 -22 l-22 -5 21 -62 c18 -54 21 -86
21 -221 l0 -157 373 0 373 0 0 -250 0 -250 249 0 249 0 5 373 c4 286 9 390 21
452 19 93 22 259 6 328 -10 45 -34 99 -62 139 -17 24 7 66 41 72 14 3 83 10
154 17 l127 12 0 138 0 139 -147 0 -148 0 -82 -82 c-45 -45 -84 -80 -86 -77
-3 2 -47 132 -98 288 l-94 283 -50 29 c-143 83 -398 143 -735 174 -205 19
-688 18 -885 -1z"/>
<path d="M1405 2884 c-330 -34 -563 -92 -707 -177 l-43 -25 -94 -284 c-51
-155 -95 -285 -98 -287 -2 -3 -43 34 -91 82 l-87 87 -143 0 -142 0 0 -143 0
-144 152 -14 c149 -14 153 -15 168 -41 12 -23 13 -31 2 -45 -7 -10 -25 -43
-39 -73 -37 -75 -44 -238 -17 -391 14 -81 19 -183 23 -464 l6 -360 247 -3 248
-2 0 250 0 250 1080 0 1080 0 2 -248 3 -247 250 0 250 0 6 380 c4 286 10 404
22 475 34 191 11 351 -60 432 -12 13 -12 21 -2 40 6 13 14 25 16 28 2 2 72 11
156 20 l152 15 0 140 0 140 -146 3 -146 3 -83 -92 -83 -91 -98 289 c-72 210
-104 293 -121 307 -94 78 -371 151 -708 186 -223 24 -744 26 -955 4z m946
-184 c255 -20 483 -61 545 -99 26 -16 39 -48 127 -312 53 -162 97 -298 97
-302 0 -4 -562 -7 -1249 -7 l-1249 0 102 307 c102 306 102 307 137 321 94 38
303 75 514 91 163 12 821 13 976 1z m-1347 -1055 c148 -8 271 -17 274 -20 3
-2 1 -51 -4 -107 l-9 -103 -297 -3 c-276 -2 -297 -1 -302 15 -5 16 -46 229
-46 238 0 2 26 1 58 -1 31 -3 178 -11 326 -19z m2116 9 c0 -9 -10 -67 -21
-130 l-22 -114 -298 0 -298 0 -5 53 c-18 181 -19 167 11 168 32 1 601 36 621
38 6 0 12 -6 12 -15z"/>
</g>
</svg>
