<svg width="32" height="38" viewBox="0 0 32 38" fill="none" xmlns="http://www.w3.org/2000/svg">
<path d="M4 38C3.43333 38 2.95833 37.8083 2.575 37.425C2.19167 37.0417 2 36.5667 2 36V31.9C1.4 31.2333 0.916667 30.4917 0.55 29.675C0.183333 28.8583 0 27.9667 0 27V8C0 5.23333 1.28333 3.20833 3.85 1.925C6.41667 0.641667 10.4667 0 16 0C21.7333 0 25.8333 0.616667 28.3 1.85C30.7667 3.08333 32 5.13333 32 8V27C32 27.9667 31.8167 28.8583 31.45 29.675C31.0833 30.4917 30.6 31.2333 30 31.9V36C30 36.5667 29.8083 37.0417 29.425 37.425C29.0417 37.8083 28.5667 38 28 38H26C25.4333 38 24.9583 37.8083 24.575 37.425C24.1917 37.0417 24 36.5667 24 36V34H8V36C8 36.5667 7.80833 37.0417 7.425 37.425C7.04167 37.8083 6.56667 38 6 38H4ZM16.1 6C19.7667 6 22.425 6 24.075 6C25.725 6 26.8 6 27.3 6H4.9C5.5 6 6.625 6 8.275 6C9.925 6 12.5333 6 16.1 6ZM24 20H8C6.9 20 5.95833 20 5.175 20C4.39167 20 4 20 4 20H28C28 20 27.6083 20 26.825 20C26.0417 20 25.1 20 24 20ZM4 16H28V10H4V16ZM9 28C9.83333 28 10.5417 27.7083 11.125 27.125C11.7083 26.5417 12 25.8333 12 25C12 24.1667 11.7083 23.4583 11.125 22.875C10.5417 22.2917 9.83333 22 9 22C8.16667 22 7.45833 22.2917 6.875 22.875C6.29167 23.4583 6 24.1667 6 25C6 25.8333 6.29167 26.5417 6.875 27.125C7.45833 27.7083 8.16667 28 9 28ZM23 28C23.8333 28 24.5417 27.7083 25.125 27.125C25.7083 26.5417 26 25.8333 26 25C26 24.1667 25.7083 23.4583 25.125 22.875C24.5417 22.2917 23.8333 22 23 22C22.1667 22 21.4583 22.2917 20.875 22.875C20.2917 23.4583 20 24.1667 20 25C20 25.8333 20.2917 26.5417 20.875 27.125C21.4583 27.7083 22.1667 28 23 28ZM4.9 6H27.3C26.8 5.43333 25.725 4.95833 24.075 4.575C22.425 4.19167 19.7667 4 16.1 4C12.5333 4 9.925 4.20833 8.275 4.625C6.625 5.04167 5.5 5.5 4.9 6ZM8 30H24C25.1 30 26.0417 29.6083 26.825 28.825C27.6083 28.0417 28 27.1 28 26V20H4V26C4 27.1 4.39167 28.0417 5.175 28.825C5.95833 29.6083 6.9 30 8 30Z" fill="white"/>
</svg>
